<svg width="52" height="75" viewBox="0 0 52 75" fill="none" xmlns="http://www.w3.org/2000/svg">
<g clip-path="url(#clip0)">
<path d="M3.35975 61.4806C3.60527 61.6208 3.60527 61.8374 3.35975 61.9776C3.11422 62.1177 2.72655 62.1177 2.48102 61.9776C2.23549 61.8374 2.23549 61.6208 2.48102 61.4806C2.72655 61.3404 3.12714 61.3404 3.35975 61.4806Z" fill="#16110D"/>
<path d="M5.66004 60.1681C5.90557 60.3083 5.90557 60.5249 5.66004 60.6651C5.41451 60.8052 5.02684 60.8052 4.78131 60.6651C4.53579 60.5249 4.53579 60.3083 4.78131 60.1681C5.02684 60.0279 5.42744 60.0279 5.66004 60.1681Z" fill="#16110D"/>
<path d="M0.620278 60.7797C0.962849 60.7797 1.24056 60.62 1.24056 60.4229C1.24056 60.2259 0.962849 60.0662 0.620278 60.0662C0.277708 60.0662 0 60.2259 0 60.4229C0 60.62 0.277708 60.7797 0.620278 60.7797Z" fill="#16110D"/>
<path d="M2.92057 59.4672C3.26314 59.4672 3.54085 59.3075 3.54085 59.1104C3.54085 58.9134 3.26314 58.7537 2.92057 58.7537C2.578 58.7537 2.30029 58.9134 2.30029 59.1104C2.30029 59.3075 2.578 59.4672 2.92057 59.4672Z" fill="#16110D"/>
<path d="M1.0597 57.556C1.30523 57.6962 1.30523 57.9128 1.0597 58.053C0.814172 58.1932 0.426498 58.1932 0.180971 58.053C-0.0645555 57.9128 -0.0645555 57.6962 0.180971 57.556C0.426498 57.4159 0.814172 57.4159 1.0597 57.556Z" fill="#16110D"/>
<path d="M31.0917 74.3883C31.3372 74.5285 31.3372 74.7451 31.0917 74.8853C30.8462 75.0254 30.4585 75.0254 30.213 74.8853C29.9674 74.7451 29.9674 74.5285 30.213 74.3883C30.4585 74.2482 30.8591 74.2482 31.0917 74.3883Z" fill="#16110D"/>
<path d="M33.3917 73.0761C33.6373 73.2162 33.6373 73.4328 33.3917 73.573C33.1462 73.7132 32.7585 73.7132 32.513 73.573C32.2675 73.4328 32.2675 73.2162 32.513 73.0761C32.7585 72.9359 33.1591 72.9359 33.3917 73.0761Z" fill="#16110D"/>
<path d="M35.2526 72.3752C35.5952 72.3752 35.8729 72.2154 35.8729 72.0184C35.8729 71.8214 35.5952 71.6616 35.2526 71.6616C34.91 71.6616 34.6323 71.8214 34.6323 72.0184C34.6323 72.2154 34.91 72.3752 35.2526 72.3752Z" fill="#16110D"/>
<path d="M38.005 70.4638C38.2505 70.6039 38.2505 70.8205 38.005 70.9607C37.7595 71.1009 37.3718 71.1009 37.1263 70.9607C36.8808 70.8205 36.8808 70.6039 37.1263 70.4638C37.3589 70.3236 37.7595 70.3236 38.005 70.4638Z" fill="#16110D"/>
<path d="M40.3053 69.1513C40.5508 69.2914 40.5508 69.508 40.3053 69.6482C40.0598 69.7884 39.6721 69.7884 39.4266 69.6482C39.181 69.508 39.181 69.2914 39.4266 69.1513C39.6592 69.0111 40.0598 69.0111 40.3053 69.1513Z" fill="#16110D"/>
<path d="M42.1659 68.4506C42.5085 68.4506 42.7862 68.2909 42.7862 68.0938C42.7862 67.8968 42.5085 67.7371 42.1659 67.7371C41.8234 67.7371 41.5457 67.8968 41.5457 68.0938C41.5457 68.2909 41.8234 68.4506 42.1659 68.4506Z" fill="#16110D"/>
<path d="M44.9056 66.5265C45.1512 66.6667 45.1512 66.8833 44.9056 67.0234C44.6601 67.1636 44.2724 67.1636 44.0269 67.0234C43.7814 66.8833 43.7814 66.6667 44.0269 66.5265C44.2724 66.3863 44.6601 66.3863 44.9056 66.5265Z" fill="#16110D"/>
<path d="M47.2057 65.214C47.4512 65.3542 47.4512 65.5708 47.2057 65.711C46.9602 65.8511 46.5725 65.8511 46.327 65.711C46.0814 65.5708 46.0814 65.3542 46.327 65.214C46.5725 65.0738 46.9602 65.0738 47.2057 65.214Z" fill="#16110D"/>
<path d="M26.4911 74.3883C26.7366 74.5285 26.7366 74.7451 26.4911 74.8853C26.2456 75.0254 25.8579 75.0254 25.6124 74.8853C25.3668 74.7451 25.3668 74.5285 25.6124 74.3883C25.8579 74.2482 26.2456 74.2482 26.4911 74.3883Z" fill="#16110D"/>
<path d="M28.352 73.6874C28.6945 73.6874 28.9722 73.5277 28.9722 73.3307C28.9722 73.1336 28.6945 72.9739 28.352 72.9739C28.0094 72.9739 27.7317 73.1336 27.7317 73.3307C27.7317 73.5277 28.0094 73.6874 28.352 73.6874Z" fill="#16110D"/>
<path d="M31.0917 71.7635C31.3372 71.9037 31.3372 72.1203 31.0917 72.2605C30.8462 72.4006 30.4585 72.4006 30.213 72.2605C29.9674 72.1203 29.9674 71.9037 30.213 71.7635C30.4585 71.6361 30.8591 71.6361 31.0917 71.7635Z" fill="#16110D"/>
<path d="M33.3917 70.4638C33.6373 70.6039 33.6373 70.8205 33.3917 70.9607C33.1462 71.1009 32.7585 71.1009 32.513 70.9607C32.2675 70.8205 32.2675 70.6039 32.513 70.4638C32.7585 70.3236 33.1591 70.3236 33.3917 70.4638Z" fill="#16110D"/>
<path d="M35.2655 69.7502C35.6081 69.7502 35.8858 69.5904 35.8858 69.3934C35.8858 69.1964 35.6081 69.0366 35.2655 69.0366C34.923 69.0366 34.6453 69.1964 34.6453 69.3934C34.6453 69.5904 34.923 69.7502 35.2655 69.7502Z" fill="#16110D"/>
<path d="M37.5656 68.4506C37.9082 68.4506 38.1859 68.2909 38.1859 68.0938C38.1859 67.8968 37.9082 67.7371 37.5656 67.7371C37.223 67.7371 36.9453 67.8968 36.9453 68.0938C36.9453 68.2909 37.223 68.4506 37.5656 68.4506Z" fill="#16110D"/>
<path d="M40.3053 66.5265C40.5508 66.6667 40.5508 66.8833 40.3053 67.0234C40.0598 67.1636 39.6721 67.1636 39.4266 67.0234C39.181 66.8833 39.181 66.6667 39.4266 66.5265C39.6592 66.3863 40.0598 66.3863 40.3053 66.5265Z" fill="#16110D"/>
<path d="M42.6054 65.214C42.8509 65.3542 42.8509 65.5708 42.6054 65.711C42.3598 65.8511 41.9722 65.8511 41.7266 65.711C41.4811 65.5708 41.4811 65.3542 41.7266 65.214C41.9722 65.0738 42.3598 65.0738 42.6054 65.214Z" fill="#16110D"/>
<path d="M44.9056 63.9015C45.1512 64.0417 45.1512 64.2583 44.9056 64.3985C44.6601 64.5386 44.2724 64.5386 44.0269 64.3985C43.7814 64.2583 43.7814 64.0417 44.0269 63.9015C44.2724 63.7613 44.6601 63.7613 44.9056 63.9015Z" fill="#16110D"/>
<path d="M23.7514 73.6874C24.094 73.6874 24.3717 73.5277 24.3717 73.3307C24.3717 73.1336 24.094 72.9739 23.7514 72.9739C23.4088 72.9739 23.1311 73.1336 23.1311 73.3307C23.1311 73.5277 23.4088 73.6874 23.7514 73.6874Z" fill="#16110D"/>
<path d="M26.4911 71.7635C26.7366 71.9037 26.7366 72.1203 26.4911 72.2605C26.2456 72.4006 25.8579 72.4006 25.6124 72.2605C25.3668 72.1203 25.3668 71.9037 25.6124 71.7635C25.8579 71.6361 26.2456 71.6361 26.4911 71.7635Z" fill="#16110D"/>
<path d="M28.7911 70.4638C29.0367 70.6039 29.0367 70.8205 28.7911 70.9607C28.5456 71.1009 28.1579 71.1009 27.9124 70.9607C27.6669 70.8205 27.6669 70.6039 27.9124 70.4638C28.1579 70.3236 28.5456 70.3236 28.7911 70.4638Z" fill="#16110D"/>
<path d="M31.0917 69.1513C31.3372 69.2914 31.3372 69.508 31.0917 69.6482C30.8462 69.7884 30.4585 69.7884 30.213 69.6482C29.9674 69.508 29.9674 69.2914 30.213 69.1513C30.4585 69.0111 30.8591 69.0111 31.0917 69.1513Z" fill="#16110D"/>
<path d="M33.3917 67.839C33.6373 67.9792 33.6373 68.1958 33.3917 68.336C33.1462 68.4761 32.7585 68.4761 32.513 68.336C32.2675 68.1958 32.2675 67.9792 32.513 67.839C32.7585 67.6988 33.1591 67.6988 33.3917 67.839Z" fill="#16110D"/>
<path d="M35.705 66.5265C35.9505 66.6667 35.9505 66.8833 35.705 67.0234C35.4594 67.1636 35.0718 67.1636 34.8262 67.0234C34.5807 66.8833 34.5807 66.6667 34.8262 66.5265C35.0588 66.3863 35.4594 66.3863 35.705 66.5265Z" fill="#16110D"/>
<path d="M37.5656 65.8256C37.9082 65.8256 38.1859 65.6659 38.1859 65.4688C38.1859 65.2718 37.9082 65.1121 37.5656 65.1121C37.223 65.1121 36.9453 65.2718 36.9453 65.4688C36.9453 65.6659 37.223 65.8256 37.5656 65.8256Z" fill="#16110D"/>
<path d="M40.3053 63.9015C40.5508 64.0417 40.5508 64.2583 40.3053 64.3985C40.0598 64.5386 39.6721 64.5386 39.4266 64.3985C39.181 64.2583 39.181 64.0417 39.4266 63.9015C39.6721 63.7613 40.0598 63.7613 40.3053 63.9015Z" fill="#16110D"/>
<path d="M42.6054 62.6019C42.8509 62.7421 42.8509 62.9587 42.6054 63.0989C42.3598 63.239 41.9722 63.239 41.7266 63.0989C41.4811 62.9587 41.4811 62.7421 41.7266 62.6019C41.9722 62.4618 42.3598 62.4618 42.6054 62.6019Z" fill="#16110D"/>
<path d="M21.4513 72.3752C21.7939 72.3752 22.0716 72.2154 22.0716 72.0184C22.0716 71.8214 21.7939 71.6616 21.4513 71.6616C21.1088 71.6616 20.8311 71.8214 20.8311 72.0184C20.8311 72.2154 21.1088 72.3752 21.4513 72.3752Z" fill="#16110D"/>
<path d="M23.7514 71.0627C24.094 71.0627 24.3717 70.903 24.3717 70.7059C24.3717 70.5089 24.094 70.3491 23.7514 70.3491C23.4088 70.3491 23.1311 70.5089 23.1311 70.7059C23.1311 70.903 23.4088 71.0627 23.7514 71.0627Z" fill="#16110D"/>
<path d="M26.4911 69.1513C26.7366 69.2914 26.7366 69.508 26.4911 69.6482C26.2456 69.7884 25.8579 69.7884 25.6124 69.6482C25.3668 69.508 25.3668 69.2914 25.6124 69.1513C25.8579 69.0111 26.2456 69.0111 26.4911 69.1513Z" fill="#16110D"/>
<path d="M19.5905 70.4638C19.836 70.6039 19.836 70.8205 19.5905 70.9607C19.3449 71.1009 18.9573 71.1009 18.7117 70.9607C18.4662 70.8205 18.4662 70.6039 18.7117 70.4638C18.9443 70.3236 19.3449 70.3236 19.5905 70.4638Z" fill="#16110D"/>
<path d="M21.8908 69.1513C22.1363 69.2914 22.1363 69.508 21.8908 69.6482C21.6452 69.7884 21.2576 69.7884 21.012 69.6482C20.7665 69.508 20.7665 69.2914 21.012 69.1513C21.2576 69.0111 21.6452 69.0111 21.8908 69.1513Z" fill="#16110D"/>
<path d="M16.851 69.7502C17.1936 69.7502 17.4713 69.5904 17.4713 69.3934C17.4713 69.1964 17.1936 69.0366 16.851 69.0366C16.5084 69.0366 16.2307 69.1964 16.2307 69.3934C16.2307 69.5904 16.5084 69.7502 16.851 69.7502Z" fill="#16110D"/>
<path d="M19.5905 67.839C19.836 67.9792 19.836 68.1958 19.5905 68.336C19.3449 68.4761 18.9573 68.4761 18.7117 68.336C18.4662 68.1958 18.4662 67.9792 18.7117 67.839C18.9443 67.6988 19.3449 67.6988 19.5905 67.839Z" fill="#16110D"/>
<path d="M14.9772 67.839C15.2227 67.9792 15.2227 68.1958 14.9772 68.336C14.7317 68.4761 14.344 68.4761 14.0985 68.336C13.8529 68.1958 13.8529 67.9792 14.0985 67.839C14.344 67.6988 14.7446 67.6988 14.9772 67.839Z" fill="#16110D"/>
<path d="M16.851 67.1381C17.1936 67.1381 17.4713 66.9784 17.4713 66.7813C17.4713 66.5843 17.1936 66.4246 16.851 66.4246C16.5084 66.4246 16.2307 66.5843 16.2307 66.7813C16.2307 66.9784 16.5084 67.1381 16.851 67.1381Z" fill="#16110D"/>
<path d="M12.6642 66.5138C12.9097 66.654 12.9097 66.8706 12.6642 67.0108C12.4187 67.1509 12.031 67.1509 11.7855 67.0108C11.5399 66.8706 11.5399 66.654 11.7855 66.5138C12.031 66.3737 12.4187 66.3737 12.6642 66.5138Z" fill="#16110D"/>
<path d="M14.9642 65.2013C15.2098 65.3415 15.2098 65.5581 14.9642 65.6983C14.7187 65.8384 14.331 65.8384 14.0855 65.6983C13.84 65.5581 13.84 65.3415 14.0855 65.2013C14.331 65.0612 14.7187 65.0612 14.9642 65.2013Z" fill="#16110D"/>
<path d="M9.92448 65.8129C10.267 65.8129 10.5448 65.6532 10.5448 65.4561C10.5448 65.2591 10.267 65.0994 9.92448 65.0994C9.58191 65.0994 9.3042 65.2591 9.3042 65.4561C9.3042 65.6532 9.58191 65.8129 9.92448 65.8129Z" fill="#16110D"/>
<path d="M12.6642 63.8888C12.9097 64.029 12.9097 64.2456 12.6642 64.3858C12.4187 64.5259 12.031 64.5259 11.7855 64.3858C11.5399 64.2456 11.5399 64.029 11.7855 63.8888C12.0181 63.7487 12.4187 63.7487 12.6642 63.8888Z" fill="#16110D"/>
<path d="M8.0636 63.8888C8.30913 64.029 8.30913 64.2456 8.0636 64.3858C7.81808 64.5259 7.4304 64.5259 7.18488 64.3858C6.93935 64.2456 6.93935 64.029 7.18488 63.8888C7.41748 63.7487 7.81808 63.7487 8.0636 63.8888Z" fill="#16110D"/>
<path d="M10.3639 62.5765C10.6094 62.7167 10.6094 62.9333 10.3639 63.0735C10.1184 63.2136 9.7307 63.2136 9.48517 63.0735C9.23964 62.9333 9.23964 62.7167 9.48517 62.5765C9.71778 62.4491 10.1184 62.4491 10.3639 62.5765Z" fill="#16110D"/>
<path d="M5.3112 63.1882C5.65377 63.1882 5.93147 63.0284 5.93147 62.8314C5.93147 62.6343 5.65377 62.4746 5.3112 62.4746C4.96863 62.4746 4.69092 62.6343 4.69092 62.8314C4.69092 63.0284 4.96863 63.1882 5.3112 63.1882Z" fill="#16110D"/>
<path d="M8.0636 61.2768C8.30913 61.4169 8.30913 61.6335 8.0636 61.7737C7.81808 61.9139 7.4304 61.9139 7.18488 61.7737C6.93935 61.6335 6.93935 61.4169 7.18488 61.2768C7.41748 61.1366 7.81808 61.1366 8.0636 61.2768Z" fill="#16110D"/>
<path d="M48.6273 63.9271C48.8729 63.787 49.2605 63.787 49.5061 63.9271C49.7516 64.0673 49.7516 64.2839 49.5061 64.4241C49.2605 64.5642 48.8729 64.5642 48.6273 64.4241C48.3947 64.2839 48.3947 64.0673 48.6273 63.9271Z" fill="#16110D"/>
<path d="M51.819 62.6146C52.0645 62.7548 52.0645 62.9714 51.819 63.1116C51.5734 63.2518 51.1858 63.2518 50.9402 63.1116C50.6947 62.9714 50.6947 62.7548 50.9402 62.6146C51.1858 62.4745 51.5734 62.4745 51.819 62.6146Z" fill="#16110D"/>
<path d="M46.327 62.6146C46.5726 62.4745 46.9602 62.4745 47.2058 62.6146C47.4513 62.7548 47.4513 62.9714 47.2058 63.1116C46.9602 63.2518 46.5726 63.2518 46.327 63.1116C46.0944 62.9714 46.0944 62.7548 46.327 62.6146Z" fill="#16110D"/>
<path d="M49.5189 61.3024C49.7645 61.4426 49.7645 61.6592 49.5189 61.7993C49.2734 61.9395 48.8857 61.9395 48.6402 61.7993C48.3947 61.6592 48.3947 61.4426 48.6402 61.3024C48.8857 61.1622 49.2734 61.1622 49.5189 61.3024Z" fill="#16110D"/>
<path d="M51.3798 60.6015C51.7224 60.6015 52.0001 60.4418 52.0001 60.2447C52.0001 60.0477 51.7224 59.8879 51.3798 59.8879C51.0372 59.8879 50.7595 60.0477 50.7595 60.2447C50.7595 60.4418 51.0372 60.6015 51.3798 60.6015Z" fill="#16110D"/>
<path d="M44.0269 61.3024C44.2724 61.1622 44.6601 61.1622 44.9056 61.3024C45.1512 61.4426 45.1512 61.6592 44.9056 61.7993C44.6601 61.9395 44.2724 61.9395 44.0269 61.7993C43.7814 61.6592 43.7814 61.4426 44.0269 61.3024Z" fill="#16110D"/>
<path d="M47.2189 59.9899C47.4644 60.1301 47.4644 60.3467 47.2189 60.4868C46.9734 60.627 46.5857 60.627 46.3402 60.4868C46.0946 60.3467 46.0946 60.1301 46.3402 59.9899C46.5728 59.8497 46.9734 59.8497 47.2189 59.9899Z" fill="#16110D"/>
<path d="M49.5189 58.6774C49.7645 58.8176 49.7645 59.0342 49.5189 59.1743C49.2734 59.3145 48.8857 59.3145 48.6402 59.1743C48.3947 59.0342 48.3947 58.8176 48.6402 58.6774C48.8857 58.5372 49.2734 58.5372 49.5189 58.6774Z" fill="#16110D"/>
<path d="M44.3759 23.6237C40.7059 17.6095 35.4982 12.6783 28.7527 8.84291L14.2149 0.560547L1.24072 8.10387C1.24072 8.10387 10.7 16.1314 10.9326 16.297C11.0101 16.348 12.354 17.2782 14.202 18.5651L25.5608 26.7583L30.1095 46.6997L30.7815 57.6834L31.1175 66.4882L44.0787 58.9321C47.9425 56.8042 49.868 51.7583 49.868 43.769C49.8809 36.3531 48.0459 29.638 44.3759 23.6237Z" fill="#FFBE2E"/>
<path d="M30.665 67.3038L30.2903 57.6962L29.6183 46.7125L25.1213 27.026L13.9175 18.9348C12.0825 17.6605 10.7386 16.7176 10.6611 16.6794C10.4155 16.5138 3.14018 10.3466 0.917521 8.46075L0.762451 8.32059V7.83639L14.2018 0L28.9851 8.42253C35.7694 12.2834 41.0805 17.3165 44.7764 23.369C48.4722 29.4343 50.3459 36.3022 50.3459 43.7691C50.3459 51.8986 48.3171 57.1483 44.3112 59.3527L30.665 67.3038ZM2.06762 8.18043C5.78929 11.3277 10.9583 15.711 11.2167 15.9149C11.2813 15.9531 12.6253 16.896 14.4732 18.183L25.9742 26.4908L30.5617 46.5979L31.2465 57.6707L31.5567 65.6855L43.8201 58.5372C47.503 56.5112 49.3768 51.5545 49.3768 43.7819C49.3768 36.4806 47.5418 29.791 43.9364 23.8787C40.331 17.9536 35.1233 13.0479 28.4811 9.26351L14.2018 1.10856L2.06762 8.18043Z" fill="#16110D"/>
<path d="M8.83887 22.184L9.48499 54.9949L21.3607 61.5188L28.9591 57.9383L30.7424 45.2217C30.7424 45.2217 23.6351 28.8736 23.5576 28.6315C23.48 28.3894 10.5576 19.9541 10.5576 19.9541L8.83887 22.184Z" fill="#16110D"/>
<path d="M12.5997 51.8093L28.9854 41.7686L30.7299 50.9301L19.0738 59.6075L11.3462 54.5107L12.5997 51.8093Z" fill="#FFBE2E"/>
<path d="M19.0996 60.1936L10.7388 54.6763L12.2249 51.478L29.3342 40.9785L31.2596 51.1212L19.0996 60.1936ZM11.9535 54.345L19.0608 59.0213L30.2 50.7262L28.6364 42.5331L12.9744 52.1406L11.9535 54.345Z" fill="#16110D"/>
<path d="M17.1868 51.4909C17.1868 51.4909 21.2315 54.4088 24.488 54.0393C27.7444 53.6697 28.1709 45.9735 28.1709 45.9735L26.7106 45.604L17.1868 51.4909Z" fill="#FFEECC"/>
<path d="M36.9196 51.3252C36.9196 59.3145 34.9942 64.3604 31.1304 66.4883C27.2666 68.6162 21.8391 67.6861 14.8481 63.6978L1.24072 55.9506V8.104L15.7785 16.3864C22.524 20.2217 27.7318 25.1529 31.4018 31.1672C35.0847 37.1815 36.9196 43.9093 36.9196 51.3252ZM25.1344 45.0688C25.1344 40.6855 24.3719 37.0031 22.8471 34.0214C21.3222 31.0398 19.0091 28.657 15.9077 26.8986L12.5996 25.0128V51.8221L15.1324 53.262C18.5827 55.2243 21.1155 55.5301 22.7179 54.1667C24.3202 52.7905 25.1344 49.7579 25.1344 45.0688Z" fill="#FFBE2E"/>
<path d="M36.7903 47.1076L49.6998 39.8191L49.8807 48.4582L47.7743 54.9949L45.0994 58.5372L33.2366 65.1886L35.7306 60.9582L36.9195 53.7207L36.7903 47.1076Z" fill="#16110D"/>
<path d="M26.5297 27.9815L39.5039 20.4382C36.5446 17.3037 33.0168 14.5641 28.9204 12.2323L14.3826 3.94995L1.40845 11.506L15.9462 19.7884C20.0556 22.1074 23.5705 24.847 26.5297 27.9815Z" fill="#FFEECC"/>
<path d="M32.4482 37.105L45.4999 29.7273C45.0993 28.95 44.6728 28.1855 44.2076 27.4337C43.3289 25.9811 42.3468 24.605 41.2871 23.2798L28.313 30.8231C29.3856 32.1483 30.3547 33.5372 31.2464 34.9898C31.6858 35.6906 32.0734 36.3914 32.4482 37.105Z" fill="#FFEECC"/>
<path d="M26.5428 68.0556C23.2088 68.0556 19.2157 66.7305 14.5895 64.1056L0.762451 56.231V7.83648L1.24058 7.55615L16.0239 15.9787C22.8082 19.8395 28.1193 24.8727 31.8151 30.9252C35.511 36.9904 37.3847 43.8584 37.3847 51.3253C37.3847 59.4547 35.3559 64.7045 31.3499 66.9089C29.9543 67.6734 28.3519 68.0556 26.5428 68.0556ZM1.73164 55.6831L15.0805 63.2901C21.8907 67.1637 27.2018 68.1066 30.8847 66.0806C34.5676 64.0546 36.4285 59.0979 36.4285 51.338C36.4285 44.0368 34.5935 37.3472 30.9881 31.4348C27.3827 25.5098 22.175 20.6041 15.5328 16.8197L1.73164 8.9323V55.6831ZM20.2883 55.4664C18.8022 55.4664 16.9931 54.8676 14.8867 53.6698L12.1213 52.0898V24.1846L16.1531 26.4782C19.3191 28.2875 21.7227 30.7468 23.2863 33.8049C24.837 36.8375 25.6253 40.6346 25.6253 45.0689C25.6253 49.9491 24.7853 53.0454 23.0408 54.5108C22.2784 55.1479 21.3738 55.4664 20.2883 55.4664ZM13.0776 51.5419L15.3648 52.8416C18.5955 54.6892 20.9603 55.0077 22.3947 53.7972C23.8807 52.5358 24.6432 49.6051 24.6432 45.0816C24.6432 40.7875 23.8937 37.1433 22.4076 34.2381C20.9344 31.3457 18.6601 29.0266 15.6621 27.3064L13.0776 25.8411V51.5419V51.5419Z" fill="#16110D"/>
</g>
<defs>
<clipPath id="clip0">
<rect width="52" height="75" fill="white"/>
</clipPath>
</defs>
</svg>
